<svg id="Layer_1" data-name="Layer 1" xmlns="http://www.w3.org/2000/svg" viewBox="0 0 341.97 246.33"><defs><style>.cls-1{fill:#f0f0ff;}.cls-2{fill:#443cff;}.cls-3{fill:#ccc7ff;}.cls-4{fill:none;stroke:#443cff;stroke-linecap:round;stroke-miterlimit:10;stroke-width:4.04px;}</style></defs><title>P&amp;amp;P_404-icon</title><path class="cls-1" d="M1.54,173.73a7.36,7.36,0,0,0,7.34,7.34H280.2a7.36,7.36,0,0,0,7.34-7.34V24.78H1.54Z"/><path class="cls-2" d="M280.2,1.88H8.88A7.36,7.36,0,0,0,1.54,9.22V24.78h286V9.22a7.36,7.36,0,0,0-7.34-7.34Z"/><path class="cls-3" d="M17.56,13.64a3.47,3.47,0,1,1-3.47-3.47,3.47,3.47,0,0,1,3.47,3.47Z"/><path class="cls-3" d="M28,13.64a3.47,3.47,0,1,1-3.47-3.47A3.47,3.47,0,0,1,28,13.64Z"/><path class="cls-3" d="M38.4,13.64a3.47,3.47,0,1,1-3.47-3.47,3.47,3.47,0,0,1,3.47,3.47Z"/><path class="cls-2" d="M121.23,79.21a6.11,6.11,0,1,1-6.11-6.12,6.12,6.12,0,0,1,6.11,6.12Z"/><path class="cls-2" d="M176.85,79.21a6.12,6.12,0,1,1-6.12-6.12,6.12,6.12,0,0,1,6.12,6.12Z"/><path class="cls-4" d="M109.66,129.21a36.56,36.56,0,0,1,66.53,0"/><path class="cls-2" d="M181.45,205.13a8.69,8.69,0,1,1,8.69,8.81A8.56,8.56,0,0,1,181.45,205.13Zm14.48,0c0-3.26-2.21-6.33-5.79-6.33s-5.78,3.07-5.78,6.33,2.2,6.34,5.78,6.34S195.93,208.4,195.93,205.13Z"/><path class="cls-2" d="M200.6,207.94a5.91,5.91,0,1,1,5.88,5.88A5.74,5.74,0,0,1,200.6,207.94Zm9.2,0a3.3,3.3,0,1,0-3.32,3.55A3.35,3.35,0,0,0,209.8,207.94Z"/><path class="cls-2" d="M217.52,203.86a4.22,4.22,0,0,1,3.46-1.8,5.88,5.88,0,0,1,0,11.76,4.22,4.22,0,0,1-3.46-1.8v7.13h-2.61v-16.8h2.61Zm0,4.08a3.3,3.3,0,1,0,3.32-3.55A3.35,3.35,0,0,0,217.52,207.94Z"/><path class="cls-2" d="M237.4,210.41c0,2.33-2,3.41-4.47,3.41s-4.56-1.41-4.56-4h2.55c0,1.46.91,2,2.16,2,1,0,1.82-.34,1.82-1.3s-1.13-1.13-3.48-2c-1.56-.6-2.66-1.17-2.66-3.12,0-2.11,1.92-3.24,4.2-3.24a4,4,0,0,1,4.27,3.79h-2.55a1.57,1.57,0,0,0-1.8-1.73c-.88,0-1.6.44-1.6,1.23,0,1,1,1.08,3.07,1.87C235.91,207.82,237.4,208.37,237.4,210.41Z"/><path class="cls-2" d="M246.16,196.73h2.61v16.8h-2.61Z"/><path class="cls-2" d="M251.27,207.94a5.91,5.91,0,1,1,5.88,5.88A5.74,5.74,0,0,1,251.27,207.94Zm9.19,0a3.3,3.3,0,1,0-3.31,3.55A3.35,3.35,0,0,0,260.46,207.94Z"/><path class="cls-2" d="M264.83,207.94a5.91,5.91,0,1,1,5.88,5.88A5.74,5.74,0,0,1,264.83,207.94Zm9.19,0a3.3,3.3,0,1,0-3.31,3.55A3.35,3.35,0,0,0,274,207.94Z"/><path class="cls-2" d="M284.46,207.94l4.66,5.59h-3.27l-4.1-4.92v4.92h-2.62v-16.8h2.62v10.56l4.1-4.94h3.27Z"/><path class="cls-2" d="M298.76,210.41c0,2.33-2,3.41-4.46,3.41s-4.56-1.41-4.56-4h2.54c0,1.46.91,2,2.16,2,1,0,1.83-.34,1.83-1.3s-1.13-1.13-3.48-2c-1.56-.6-2.67-1.17-2.67-3.12,0-2.11,1.92-3.24,4.2-3.24a4,4,0,0,1,4.28,3.79h-2.55a1.57,1.57,0,0,0-1.8-1.73c-.89,0-1.61.44-1.61,1.23,0,1,1,1.08,3.08,1.87C297.28,207.82,298.76,208.37,298.76,210.41Z"/><path class="cls-2" d="M307.52,196.73h2.62v16.8h-2.62Z"/><path class="cls-2" d="M314.65,196.32a1.94,1.94,0,1,1-1.92,2A1.95,1.95,0,0,1,314.65,196.32Zm-1.3,6H316v11.18h-2.62Z"/><path class="cls-2" d="M324.49,207.94l4.66,5.59h-3.27l-4.1-4.92v4.92h-2.62v-16.8h2.62v10.56l4.1-4.94h3.27Z"/><path class="cls-2" d="M332.31,208.73c.12,1.61.82,2.91,3,2.91a2.21,2.21,0,0,0,2.38-1.47h2.64c-.31,1.92-2.16,3.65-5,3.65-3.76,0-5.59-2.59-5.59-5.88s2-5.88,5.52-5.88a5,5,0,0,1,5.19,5,9.12,9.12,0,0,1-.12,1.63Zm0-1.94h5.57a2.58,2.58,0,0,0-2.71-2.76A2.62,2.62,0,0,0,332.31,206.79Z"/><path class="cls-2" d="M183.61,243.27a4.42,4.42,0,0,1-1.51-3.46h2.64a2.47,2.47,0,0,0,2.64,2.4c1.61,0,2.74-.57,2.74-2.66V237a4,4,0,0,1-3.65,1.85,3.81,3.81,0,0,1-3.36-1.51,5.64,5.64,0,0,1-.72-3.31v-6.65H185v5.78c0,1.92.56,3.39,2.43,3.39s2.69-1.47,2.69-3.39v-5.78h2.61v12.19a4.64,4.64,0,0,1-1.39,3.67,5.91,5.91,0,0,1-4,1.2A5.8,5.8,0,0,1,183.61,243.27Z"/><path class="cls-2" d="M195.18,233a5.91,5.91,0,1,1,5.88,5.88A5.74,5.74,0,0,1,195.18,233Zm9.19,0a3.29,3.29,0,1,0-3.31,3.55A3.34,3.34,0,0,0,204.37,233Z"/><path class="cls-2" d="M219.66,227.36v11.18H217V237a4,4,0,0,1-3.64,1.85,3.81,3.81,0,0,1-3.36-1.51,5.56,5.56,0,0,1-.72-3.31v-6.65h2.61v5.78c0,1.92.55,3.39,2.43,3.39s2.68-1.47,2.68-3.39v-5.78Z"/><path class="cls-2" d="M240.18,239.09a5,5,0,0,1-1.61,4.08,6.66,6.66,0,0,1-4.39,1.28A6,6,0,0,1,230,243a4.72,4.72,0,0,1-1.48-3.2h2.64c.14,1.2,1.1,2.28,3,2.28,2.08,0,3.36-.88,3.36-3V237a4.2,4.2,0,0,1-3.46,1.8,5.88,5.88,0,0,1,0-11.76,4.2,4.2,0,0,1,3.46,1.8v-1.51h2.61ZM230.94,233a3.3,3.3,0,1,0,3.26-3.55A3.34,3.34,0,0,0,230.94,233Z"/><path class="cls-2" d="M242.58,233a5.91,5.91,0,1,1,5.88,5.88A5.74,5.74,0,0,1,242.58,233Zm9.19,0a3.29,3.29,0,1,0-3.31,3.55A3.34,3.34,0,0,0,251.77,233Z"/><path class="cls-2" d="M263,238.54a12.6,12.6,0,0,1-1.94.15c-1.27,0-3.62-.17-3.62-3.94v-5.21h-1.9v-2.18h1.9V224h2.61v3.39h2.57v2.18h-2.57v4.61c0,1.94.6,2.18,1.63,2.18a9.66,9.66,0,0,0,1.32-.09Z"/><path class="cls-2" d="M271.23,221.74h2.62v16.8h-2.62Z"/><path class="cls-2" d="M276.35,233a5.91,5.91,0,1,1,5.88,5.88A5.74,5.74,0,0,1,276.35,233Zm9.19,0a3.3,3.3,0,1,0-3.31,3.55A3.35,3.35,0,0,0,285.54,233Z"/><path class="cls-2" d="M298.81,235.42c0,2.33-2,3.41-4.46,3.41s-4.56-1.42-4.56-4.06h2.54c0,1.47.91,2,2.16,2,1,0,1.82-.34,1.82-1.3s-1.12-1.13-3.48-2c-1.56-.6-2.66-1.18-2.66-3.12,0-2.11,1.92-3.24,4.2-3.24a4,4,0,0,1,4.27,3.79H296.1a1.57,1.57,0,0,0-1.8-1.73c-.89,0-1.61.44-1.61,1.23,0,1,1,1.08,3.07,1.87C297.32,232.83,298.81,233.38,298.81,235.42Z"/><path class="cls-2" d="M307.72,238.54a12.87,12.87,0,0,1-2,.15c-1.27,0-3.62-.17-3.62-3.94v-5.21h-1.9v-2.18h1.9V224h2.61v3.39h2.57v2.18h-2.57v4.61c0,1.94.6,2.18,1.64,2.18a9.9,9.9,0,0,0,1.32-.09Z"/><path class="cls-2" d="M311.63,234.89a2,2,0,1,1-2,2A2,2,0,0,1,311.63,234.89Zm-1.42-13.15h2.86v11.45h-2.86Z"/><path class="cls-2" d="M30.52,216.92H4.27V166.5H16.11v39.82H30.52V184.71H42.35v21.61h9.88v10.6H42.35v21.61H30.52Z"/><path class="cls-2" d="M58,190.48c0-13.59,10-25.21,25.21-25.21,15.43,0,25.42,11.62,25.42,25.21v24.08c0,13.58-10,25.21-25.42,25.21C68,239.77,58,228.14,58,214.56Zm38.79,0c0-7.93-5.35-14.62-13.58-14.62s-13.38,6.69-13.38,14.62v24.08c0,7.92,5.25,14.61,13.38,14.61s13.58-6.69,13.58-14.61Z"/><path class="cls-2" d="M141,216.92H114.79V166.5h11.83v39.82H141V184.71h11.83v21.61h9.88v10.6h-9.88v21.61H141Z"/></svg>