<svg id="Layer_1" data-name="Layer 1" xmlns="http://www.w3.org/2000/svg" viewBox="0 0 611.73 355.98"><defs><style>.cls-1{fill:#f0f0ff;}.cls-2{fill:#443cff;}.cls-3{fill:#ccc7ff;}.cls-4{fill:none;stroke:#443cff;stroke-linecap:round;stroke-miterlimit:10;stroke-width:5px;}</style></defs><title>P&amp;amp;P_404-icon</title><path class="cls-1" d="M3,215.09a9.11,9.11,0,0,0,9.08,9.08H348a9.11,9.11,0,0,0,9.08-9.08V30.69H3Z"/><path class="cls-2" d="M348,2.34H12.06A9.11,9.11,0,0,0,3,11.42V30.69H357.05V11.42A9.11,9.11,0,0,0,348,2.34"/><path class="cls-3" d="M22.81,16.89a4.29,4.29,0,1,1-4.29-4.29,4.29,4.29,0,0,1,4.29,4.29"/><path class="cls-3" d="M35.71,16.89a4.29,4.29,0,1,1-4.29-4.29,4.29,4.29,0,0,1,4.29,4.29"/><path class="cls-3" d="M48.61,16.89a4.29,4.29,0,1,1-4.29-4.29,4.29,4.29,0,0,1,4.29,4.29"/><path class="cls-2" d="M151.15,98.07a7.57,7.57,0,1,1-7.56-7.57,7.55,7.55,0,0,1,7.56,7.57"/><path class="cls-2" d="M220,98.07a7.57,7.57,0,1,1-7.57-7.57A7.56,7.56,0,0,1,220,98.07"/><path class="cls-4" d="M136.83,160a45.26,45.26,0,0,1,82.37,0"/><path class="cls-2" d="M378.31,126.25c0-6.65,4.8-12.84,12.67-12.84s12.67,6.19,12.67,12.84S398.86,139.1,391,139.1,378.31,132.9,378.31,126.25Zm21.11,0c0-4.76-3.22-9.24-8.44-9.24s-8.43,4.48-8.43,9.24,3.22,9.24,8.43,9.24S399.42,131,399.42,126.25Z"/><path class="cls-2" d="M406.13,130.35a8.62,8.62,0,1,1,8.58,8.58A8.38,8.38,0,0,1,406.13,130.35Zm13.41,0a4.88,4.88,0,0,0-4.83-5.18c-2.87,0-4.76,2.38-4.76,5.18s1.89,5.18,4.76,5.18A4.88,4.88,0,0,0,419.54,130.35Z"/><path class="cls-2" d="M430.7,124.4a6.14,6.14,0,0,1,5.05-2.63,8.58,8.58,0,0,1,0,17.16,6.14,6.14,0,0,1-5.05-2.63v10.4h-3.81V122.19h3.81Zm0,5.95a4.88,4.88,0,0,0,4.84,5.18c2.87,0,4.76-2.38,4.76-5.18s-1.89-5.18-4.76-5.18A4.88,4.88,0,0,0,430.7,130.35Z"/><path class="cls-2" d="M459.55,134c0,3.4-2.95,5-6.52,5s-6.65-2.07-6.65-5.92h3.71c0,2.13,1.33,2.91,3.15,2.91,1.51,0,2.66-.49,2.66-1.9s-1.64-1.64-5.07-3c-2.28-.88-3.89-1.72-3.89-4.55,0-3.08,2.8-4.73,6.13-4.73s6.23,2.35,6.23,5.53h-3.71c0-1.54-.77-2.52-2.63-2.52-1.29,0-2.34.63-2.34,1.79,0,1.4,1.5,1.57,4.48,2.73C457.38,130.17,459.55,131,459.55,134Z"/><path class="cls-2" d="M472.18,114H476v24.51h-3.81Z"/><path class="cls-2" d="M479.53,130.35a8.61,8.61,0,1,1,8.57,8.58A8.37,8.37,0,0,1,479.53,130.35Zm13.4,0a4.88,4.88,0,0,0-4.83-5.18c-2.87,0-4.76,2.38-4.76,5.18s1.89,5.18,4.76,5.18A4.88,4.88,0,0,0,492.93,130.35Z"/><path class="cls-2" d="M499.2,130.35a8.61,8.61,0,1,1,8.57,8.58A8.37,8.37,0,0,1,499.2,130.35Zm13.4,0a4.88,4.88,0,0,0-4.83-5.18c-2.87,0-4.76,2.38-4.76,5.18s1.89,5.18,4.76,5.18A4.88,4.88,0,0,0,512.6,130.35Z"/><path class="cls-2" d="M527.72,130.35l6.79,8.16h-4.76l-6-7.18v7.18H520V114h3.82v15.4l6-7.21h4.76Z"/><path class="cls-2" d="M548.44,134c0,3.4-2.94,5-6.51,5s-6.65-2.07-6.65-5.92H539c0,2.13,1.33,2.91,3.15,2.91,1.51,0,2.66-.49,2.66-1.9s-1.64-1.64-5.07-3c-2.28-.88-3.89-1.72-3.89-4.55,0-3.08,2.8-4.73,6.13-4.73s6.23,2.35,6.23,5.53h-3.71c0-1.54-.77-2.52-2.63-2.52-1.29,0-2.34.63-2.34,1.79,0,1.4,1.5,1.57,4.48,2.73C546.27,130.17,548.44,131,548.44,134Z"/><path class="cls-2" d="M561.08,114h3.81v24.51h-3.81Z"/><path class="cls-2" d="M571.37,113.41a2.82,2.82,0,1,1-2.8,2.83A2.82,2.82,0,0,1,571.37,113.41Zm-1.89,8.78h3.81v16.32h-3.81Z"/><path class="cls-2" d="M585.61,130.35l6.79,8.16h-4.76l-6-7.18v7.18h-3.82V114h3.82v15.4l6-7.21h4.76Z"/><path class="cls-2" d="M596.92,131.5c.17,2.35,1.19,4.24,4.37,4.24,2.17,0,3-1,3.47-2.14h3.85c-.46,2.8-3.15,5.33-7.32,5.33-5.49,0-8.15-3.79-8.15-8.58s2.9-8.58,8.05-8.58a7.36,7.36,0,0,1,7.56,7.35,13,13,0,0,1-.18,2.38Zm0-2.83H605a3.77,3.77,0,0,0-4-4A3.82,3.82,0,0,0,596.92,128.67Z"/><path class="cls-2" d="M381.46,185.41a6.43,6.43,0,0,1-2.2-5h3.85a3.6,3.6,0,0,0,3.85,3.5c2.34,0,4-.84,4-3.89v-3.75a5.81,5.81,0,0,1-5.32,2.7c-2.35,0-4-.84-4.9-2.21-.81-1.22-1.06-2.58-1.06-4.83V162.2h3.82v8.43c0,2.8.81,4.94,3.54,4.94s3.92-2.14,3.92-4.94V162.2h3.81V180a6.79,6.79,0,0,1-2,5.36,8.62,8.62,0,0,1-5.84,1.75A8.46,8.46,0,0,1,381.46,185.41Z"/><path class="cls-2" d="M398.22,170.35a8.62,8.62,0,1,1,8.58,8.58A8.37,8.37,0,0,1,398.22,170.35Zm13.41,0a4.88,4.88,0,0,0-4.83-5.18c-2.87,0-4.76,2.38-4.76,5.18s1.89,5.18,4.76,5.18A4.88,4.88,0,0,0,411.63,170.35Z"/><path class="cls-2" d="M433.79,162.2v16.31H430v-2.28a5.79,5.79,0,0,1-5.32,2.7,5.53,5.53,0,0,1-4.9-2.21c-.81-1.22-1.05-2.58-1.05-4.83V162.2h3.81v8.43c0,2.8.81,4.94,3.54,4.94s3.92-2.14,3.92-4.94V162.2Z"/><path class="cls-2" d="M463.71,179.31c0,2.74-.84,4.7-2.34,6a9.79,9.79,0,0,1-6.41,1.85,8.67,8.67,0,0,1-6.09-2.1,6.79,6.79,0,0,1-2.17-4.65h3.85c.21,1.75,1.61,3.32,4.37,3.32,3.05,0,4.9-1.29,4.9-4.38v-3a6.13,6.13,0,0,1-5,2.62,8.58,8.58,0,0,1,0-17.15,6.13,6.13,0,0,1,5,2.62v-2.2h3.82Zm-13.48-9c0,2.8,1.89,5.18,4.76,5.18a5.19,5.19,0,0,0,0-10.36C452.12,165.17,450.23,167.55,450.23,170.35Z"/><path class="cls-2" d="M467.1,170.35a8.61,8.61,0,1,1,8.58,8.58A8.37,8.37,0,0,1,467.1,170.35Zm13.41,0a4.88,4.88,0,0,0-4.83-5.18c-2.87,0-4.76,2.38-4.76,5.18s1.89,5.18,4.76,5.18A4.88,4.88,0,0,0,480.51,170.35Z"/><path class="cls-2" d="M496.75,178.51a18,18,0,0,1-2.84.21c-1.85,0-5.28-.25-5.28-5.74v-7.6h-2.77V162.2h2.77v-4.94h3.81v4.94h3.75v3.18h-3.75v6.72c0,2.84.88,3.19,2.38,3.19a14.61,14.61,0,0,0,1.93-.14Z"/><path class="cls-2" d="M508.75,154h3.82v24.5h-3.82Z"/><path class="cls-2" d="M516.1,170.35a8.61,8.61,0,1,1,8.58,8.58A8.37,8.37,0,0,1,516.1,170.35Zm13.41,0a4.88,4.88,0,0,0-4.83-5.18c-2.87,0-4.76,2.38-4.76,5.18s1.89,5.18,4.76,5.18A4.88,4.88,0,0,0,529.51,170.35Z"/><path class="cls-2" d="M548.72,174c0,3.39-2.94,5-6.51,5s-6.65-2.07-6.65-5.91h3.71c0,2.13,1.33,2.9,3.15,2.9,1.51,0,2.66-.49,2.66-1.89s-1.64-1.65-5.07-3c-2.28-.87-3.89-1.71-3.89-4.55,0-3.08,2.8-4.72,6.13-4.72s6.23,2.34,6.23,5.53h-3.71c0-1.54-.77-2.52-2.63-2.52-1.29,0-2.34.63-2.34,1.78,0,1.4,1.5,1.58,4.48,2.73C546.55,170.18,548.72,171,548.72,174Z"/><path class="cls-2" d="M561.57,178.51a18,18,0,0,1-2.84.21c-1.85,0-5.28-.25-5.28-5.74v-7.6h-2.77V162.2h2.77v-4.94h3.81v4.94H561v3.18h-3.75v6.72c0,2.84.88,3.19,2.38,3.19a14.61,14.61,0,0,0,1.93-.14Z"/><path class="cls-2" d="M567.13,173.19a3,3,0,1,1-2.94,2.94A3,3,0,0,1,567.13,173.19ZM565.07,154h4.16V170.7h-4.16Z"/><path class="cls-2" d="M321.49,308.29h-52.1V208.17h23.5v79.07h28.6v-42.9H345v42.9H364.6v21.05H345v42.9h-23.5Z"/><path class="cls-2" d="M376.05,255.78c0-27,19.81-50.06,50.05-50.06,30.65,0,50.47,23.09,50.47,50.06v47.81c0,27-19.82,50.05-50.47,50.05-30.24,0-50.05-23.08-50.05-50.05Zm77,0c0-15.73-10.62-29-27-29-16.14,0-26.56,13.28-26.56,29v47.81c0,15.73,10.42,29,26.56,29,16.35,0,27-13.28,27-29Z"/><path class="cls-2" d="M540.93,308.29h-52.1V208.17h23.49v79.07h28.61v-42.9h23.49v42.9H584v21.05H564.42v42.9H540.93Z"/></svg>