<svg id="Layer_1" data-name="Layer 1" xmlns="http://www.w3.org/2000/svg" viewBox="0 0 597.21 586.29"><defs><style>.cls-1{fill:#e12a42;}</style></defs><title>jam-loader</title><path class="cls-1" d="M17.79,209.12l4.33-11.39L79,219.3l11.78-31.08L101,192.09,84.87,234.55Z"/><path class="cls-1" d="M84.09,148.51C68.55,134.37,66.94,113,81.42,97.13c13.9-15.29,35.14-16.8,51.3-2.08s16.71,36,2.81,51.31C121.06,162.26,99.66,162.68,84.09,148.51Zm40.13-44.11c-10.85-9.86-25.49-9.42-34.4.37-9.4,10.34-7.55,25,2.78,34.38s25.12,9.89,34.51-.45C136,128.91,135.06,114.26,124.22,104.4Z"/><path class="cls-1" d="M211.86,73.84,185.39,86.23l1.68,16.22-11.49,5.38-6.16-76.15,10.74-5,54.68,53.44L223.3,85.47Zm-7.81-8-23-23.46-.09,0,3.3,32.68Z"/><path class="cls-1" d="M257.7,3l22.76-1c22.66-1,37.75,13.14,38.67,34.28s-12.33,36.23-35.28,37.22l-23.06,1Zm24.94,59.65C297.78,62,307.19,51,306.58,36.88,306,22.37,295.48,12.32,281.17,13l-10.87.46,2.15,49.69Z"/><path class="cls-1" d="M369.62,10.07l11.79,3.19L362.67,82.44l-11.79-3.19Z"/><path class="cls-1" d="M484.36,65.57l-39.37,60-10.39-6.81-1.2-61.48-.16-.11L405.4,99.6l-10.19-6.67,39.37-60,10.11,6.63,1,62.26.21.13,28.24-43Z"/><path class="cls-1" d="M485.35,176.48C474.12,159.3,477,138.76,496,126.35c17.61-11.5,38.25-8.62,50.28,9.81,5.47,8.38,8.1,19.24,5.36,29.91l-10.9-3.18a27,27,0,0,0-4.1-20.51C529.61,131.58,516,128.48,503,137c-12,7.83-16.12,21.42-8.3,33.41a28.11,28.11,0,0,0,12.73,10.76l10.1-6.6-9.6-14.68,9.16-6,16.22,24.83L508.2,195.1c-8.11-2.53-16.82-9.36-22.86-18.61Z"/><path class="cls-1" d="M551.57,273.93a11.37,11.37,0,1,1-10.82,11.74A11.28,11.28,0,0,1,551.57,273.93Z"/><path class="cls-1" d="M586.92,351.64l-3.18,11.75L525.12,347.5l-8.68,32-10.55-2.85,11.86-43.78Z"/><path class="cls-1" d="M527,418.7c16.86,12.53,20.55,33.62,7.72,50.87-12.34,16.58-33.34,20.16-50.86,7.11s-20.18-34.2-7.84-50.78C488.83,408.63,510.08,406.11,527,418.7Zm-41.87,14c-7.9,10.62-5.49,25.1,6.27,33.85s26.3,6.86,34.2-3.75c8.34-11.21,5.07-25.61-6.14-34s-26-7.36-34.32,3.84Z"/><path class="cls-1" d="M407.19,505.48l25.11-14.95-3.27-16,10.91-6.5,13.69,75.19-10.19,6.07L383.7,501.55l11-6.53Zm8.57,7.16L441,533.71l.08-.05-6.52-32.2Z"/><path class="cls-1" d="M368.76,580.39l-22.55,3.23c-22.46,3.23-38.88-9.33-41.89-30.28s8.68-37.29,31.43-40.56l22.84-3.27ZM338,523.5c-15,2.15-23.29,14-21.28,28.06,2.06,14.38,13.48,23.31,27.66,21.28l10.76-1.53-7.06-49.25Z"/><path class="cls-1" d="M256.76,584.36l-12-2,11.71-70.62,12,2Z"/><path class="cls-1" d="M137.21,540.48,170.3,477l11,5.73,7.3,60.88.17.09,23.4-44.88,10.77,5.63-33.09,63.44-10.67-5.57-7.23-61.67-.21-.11L148,546.1Z"/><path class="cls-1" d="M119.55,481.35c-16.34,13.19-37.12,12.41-50.92-4.7-6.28-7.77-10-18.31-8.31-29.18l11.13,2.06a26.88,26.88,0,0,0,6.12,20c8.08,10,21.92,11.75,34,2,11.13-9,13.88-22.89,4.89-34a28.05,28.05,0,0,0-13.71-9.41l-9.38,7.55,11,13.63-8.49,6.85-18.58-23,23.26-18.78c8.32,1.7,17.64,7.63,24.55,16.2C138,446.44,137.19,467.12,119.55,481.35Z"/><path class="cls-1" d="M49.49,339.86a11.35,11.35,0,1,1,9.61-12.74A11.27,11.27,0,0,1,49.49,339.86Z"/></svg>